<svg viewBox="0 0 18 18" fill="none" xmlns="http://www.w3.org/2000/svg">
<path d="M7.12051 13.6166C6.56676 13.6166 6.09707 13.4238 5.71145 13.0382C5.32582 12.6526 5.13301 12.1829 5.13301 11.6291V2.88337C5.13301 2.32962 5.32582 1.85994 5.71145 1.47431C6.09707 1.08869 6.56676 0.895874 7.12051 0.895874H13.6163C14.17 0.895874 14.6397 1.08869 15.0253 1.47431C15.4109 1.85994 15.6038 2.32962 15.6038 2.88337V11.6291C15.6038 12.1829 15.4109 12.6526 15.0253 13.0382C14.6397 13.4238 14.17 13.6166 13.6163 13.6166H7.12051ZM7.12051 11.6291H13.6163V2.88337H7.12051V11.6291ZM3.63301 17.1041C3.07926 17.1041 2.60957 16.9113 2.22395 16.5257C1.83832 16.1401 1.64551 15.6704 1.64551 15.1166V5.37712C1.64551 5.10112 1.74213 4.8665 1.93538 4.67325C2.12851 4.48 2.36313 4.38337 2.63926 4.38337C2.91538 4.38337 3.15007 4.48 3.34332 4.67325C3.53645 4.8665 3.63301 5.10112 3.63301 5.37712V15.1166H11.1225C11.3985 15.1166 11.6331 15.2132 11.8264 15.4063C12.0196 15.5996 12.1163 15.8342 12.1163 16.1104C12.1163 16.3865 12.0196 16.6211 11.8264 16.8142C11.6331 17.0075 11.3985 17.1041 11.1225 17.1041H3.63301Z" fill="currentColor"/>
</svg>
