<svg width="24" height="24" viewBox="0 0 24 24" fill="none" xmlns="http://www.w3.org/2000/svg">
<g clip-path="url(#clip0_3303_473)">
<path d="M12 4.62207C14.4045 4.62207 14.6868 4.63279 15.6372 4.67566C16.5161 4.71497 16.9913 4.86145 17.3093 4.9865C17.7309 5.15085 18.031 5.34379 18.3454 5.6582C18.6598 5.97261 18.8563 6.27273 19.0171 6.69432C19.1386 7.01231 19.2886 7.48749 19.3279 8.36641C19.3708 9.31679 19.3815 9.59905 19.3815 12.0036C19.3815 14.4081 19.3708 14.6904 19.3279 15.6407C19.2886 16.5196 19.1421 16.9948 19.0171 17.3128C18.8527 17.7344 18.6598 18.0345 18.3454 18.3489C18.031 18.6634 17.7309 18.8599 17.3093 19.0206C16.9913 19.1421 16.5161 19.2922 15.6372 19.3315C14.6868 19.3744 14.4045 19.3851 12 19.3851C9.59548 19.3851 9.31322 19.3744 8.36285 19.3315C7.48393 19.2922 7.00874 19.1457 6.69075 19.0206C6.26916 18.8563 5.96904 18.6634 5.65463 18.3489C5.34022 18.0345 5.14371 17.7344 4.98293 17.3128C4.86145 16.9948 4.71139 16.5196 4.67209 15.6407C4.62922 14.6904 4.6185 14.4081 4.6185 12.0036C4.6185 9.59905 4.62922 9.31679 4.67209 8.36641C4.71139 7.48749 4.85788 7.01231 4.98293 6.69432C5.14728 6.27273 5.34022 5.97261 5.65463 5.6582C5.96904 5.34379 6.26916 5.14728 6.69075 4.9865C7.00874 4.86503 7.48393 4.71497 8.36285 4.67566C9.31322 4.62922 9.59905 4.62207 12 4.62207ZM12 3C9.55618 3 9.24891 3.01072 8.28782 3.05359C7.33029 3.09647 6.67646 3.2501 6.10481 3.47162C5.51171 3.70028 5.01151 4.01112 4.51132 4.51131C4.01112 5.01151 3.70385 5.51528 3.47162 6.1048C3.2501 6.67646 3.09647 7.33029 3.05359 8.29139C3.01072 9.24891 3 9.55617 3 12C3 14.4438 3.01072 14.7511 3.05359 15.7122C3.09647 16.6697 3.2501 17.3235 3.47162 17.8988C3.70028 18.4919 4.01112 18.9921 4.51132 19.4923C5.01151 19.9925 5.51529 20.2997 6.10481 20.532C6.67646 20.7535 7.33029 20.9071 8.29139 20.95C9.25249 20.9929 9.55618 21.0036 12.0036 21.0036C14.451 21.0036 14.7547 20.9929 15.7158 20.95C16.6733 20.9071 17.3271 20.7535 17.9024 20.532C18.4954 20.3033 18.9956 19.9925 19.4958 19.4923C19.996 18.9921 20.3033 18.4883 20.5355 17.8988C20.7571 17.3271 20.9107 16.6733 20.9536 15.7122C20.9964 14.7511 21.0072 14.4474 21.0072 12C21.0072 9.5526 20.9964 9.24891 20.9536 8.28781C20.9107 7.33029 20.7571 6.67646 20.5355 6.10123C20.3069 5.50814 19.996 5.00794 19.4958 4.50774C18.9956 4.00754 18.4919 3.70028 17.9024 3.46804C17.3307 3.24653 16.6769 3.09289 15.7158 3.05002C14.7511 3.01072 14.4438 3 12 3Z" fill="currentColor"/>
<path d="M12 7.38031C9.44896 7.38031 7.37671 9.44899 7.37671 12.0036C7.37671 14.5582 9.44539 16.6268 12 16.6268C14.5546 16.6268 16.6232 14.5582 16.6232 12.0036C16.6232 9.44899 14.5546 7.38031 12 7.38031ZM12 15.0012C10.3422 15.0012 8.99878 13.6578 8.99878 12C8.99878 10.3422 10.3422 8.99881 12 8.99881C13.6578 8.99881 15.0012 10.3422 15.0012 12C15.0012 13.6578 13.6578 15.0012 12 15.0012Z" fill="#1F1F1F"/>
<path d="M16.8056 8.27351C17.4015 8.27351 17.8846 7.79042 17.8846 7.19451C17.8846 6.59859 17.4015 6.11551 16.8056 6.11551C16.2096 6.11551 15.7266 6.59859 15.7266 7.19451C15.7266 7.79042 16.2096 8.27351 16.8056 8.27351Z" fill="#1F1F1F"/>
</g>
<defs>
<clipPath id="clip0_3303_473">
<rect width="18" height="18" fill="white" transform="translate(3 3)"/>
</clipPath>
</defs>
</svg>
