<svg viewBox="0 0 24 24" fill="none" xmlns="http://www.w3.org/2000/svg">
<path d="M9.71343 13.3337C9.08626 12.7062 8.77268 11.9442 8.77268 11.0477V5.08974C8.77268 4.19324 9.08651 3.43124 9.71418 2.80374C10.3418 2.17624 11.104 1.86249 12.0007 1.86249C12.8973 1.86249 13.6593 2.17624 14.2864 2.80374C14.9136 3.43124 15.2272 4.19324 15.2272 5.08974V11.0477C15.2272 11.9442 14.9133 12.7062 14.2857 13.3337C13.658 13.9612 12.8958 14.275 11.9992 14.275C11.1025 14.275 10.3406 13.9612 9.71343 13.3337ZM10.9102 20.275V18.2657C9.32118 18.0451 7.96184 17.3732 6.83218 16.25C5.70268 15.1268 5.01526 13.7643 4.76993 12.1625C4.72876 11.8553 4.80976 11.5927 5.01293 11.3747C5.21626 11.1567 5.47151 11.0477 5.77868 11.0477C6.08601 11.0477 6.34643 11.1536 6.55993 11.3652C6.77359 11.5767 6.91776 11.8362 6.99243 12.1435C7.24559 13.3262 7.84368 14.2935 8.78668 15.0455C9.72951 15.7973 10.8005 16.1732 11.9997 16.1732C13.2158 16.1732 14.2912 15.7932 15.2257 15.033C16.1603 14.2727 16.7543 13.3095 17.0074 12.1435C17.0821 11.8362 17.2263 11.5767 17.4399 11.3652C17.6534 11.1536 17.9138 11.0477 18.2212 11.0477C18.5283 11.0477 18.7826 11.1577 18.9839 11.3777C19.1853 11.5976 19.2653 11.8612 19.2239 12.1685C18.9786 13.737 18.2963 15.0902 17.1772 16.228C16.0578 17.3658 14.6953 18.0451 13.0897 18.2657V20.275C13.0897 20.5837 12.9848 20.8425 12.7752 21.0515C12.5655 21.2603 12.3071 21.3647 11.9999 21.3647C11.6928 21.3647 11.4343 21.2603 11.2247 21.0515C11.015 20.8425 10.9102 20.5837 10.9102 20.275ZM12.6794 11.7262C12.8613 11.5437 12.9522 11.3176 12.9522 11.0477V5.08974C12.9522 4.81991 12.8613 4.59374 12.6794 4.41124C12.4978 4.22874 12.2713 4.13749 11.9999 4.13749C11.7286 4.13749 11.5021 4.22874 11.3204 4.41124C11.1386 4.59374 11.0477 4.81991 11.0477 5.08974V11.0477C11.0477 11.3176 11.1386 11.5437 11.3204 11.7262C11.5021 11.9087 11.7286 12 11.9999 12C12.2713 12 12.4978 11.9087 12.6794 11.7262Z" fill="currentColor"/>
</svg>
